<svg width="current" height="current" viewBox="0 0 24 24" fill="none" xmlns="http://www.w3.org/2000/svg">
<path fill-rule="evenodd" clip-rule="evenodd" d="M17.588 8L14 4.51164V8H17.588ZM20 9V20C20 21.1046 19.1046 22 18 22H6C4.89543 22 4 21.1046 4 20V4C4 2.89543 4.89543 2 6 2H13H13.4737C13.9944 2 14.4946 2.20306 14.8679 2.56601L19.3942 6.96654C19.7815 7.3431 20 7.86033 20 8.40053V9ZM18 10H13C12.4477 10 12 9.55229 12 9V4L6 4L6 20L18 20L18 10ZM13.3433 12.8259C12.9461 12.3845 12.2539 12.3845 11.8567 12.8259L10.0328 14.8525L9.848 14.5568C9.45633 13.9301 8.54367 13.9301 8.152 14.5568L6.95625 16.47C6.53997 17.136 7.01881 18 7.80425 18H9.44536H10.1958H15.7546C16.6204 18 17.0771 16.9746 16.4979 16.331L13.3433 12.8259ZM9 13C9.55228 13 10 12.5523 10 12C10 11.4477 9.55228 11 9 11C8.44772 11 8 11.4477 8 12C8 12.5523 8.44772 13 9 13Z" fill="#272727"/>
</svg>
