<svg width="current" height="current" viewBox="0 0 24 24" fill="none" xmlns="http://www.w3.org/2000/svg">
<path fill-rule="evenodd" clip-rule="evenodd" d="M12 2C6.47715 2 2 6.47715 2 12C2 17.5228 6.47715 22 12 22C17.5228 22 22 17.5228 22 12C22 6.47715 17.5228 2 12 2ZM7.05028 13.9497C6.65976 13.5592 6.65975 12.9261 7.05028 12.5355L11.2896 8.29623L11.2929 8.29289C11.4859 8.09992 11.7381 8.0023 11.991 8.00004C12.2499 7.99772 12.5096 8.09534 12.7071 8.29289L12.7104 8.2962L16.9498 12.5355C17.3403 12.9261 17.3403 13.5592 16.9498 13.9497C16.5592 14.3403 15.9261 14.3403 15.5355 13.9497L12 10.4142L8.46449 13.9497C8.07397 14.3403 7.4408 14.3403 7.05028 13.9497Z" fill="#272727"/>
</svg>
