<svg width="current" height="current" viewBox="0 0 24 24" fill="none" xmlns="http://www.w3.org/2000/svg">
<path fill-rule="evenodd" clip-rule="evenodd" d="M12 20C12.1036 20 12.2066 19.998 12.3092 19.9941C13.9244 19.9327 15.417 19.3925 16.6489 18.5113C15.6013 17.6453 13.9833 17 12 17C10.0167 17 8.39869 17.6453 7.35104 18.5113C8.58344 19.3928 10.0765 19.9331 11.6923 19.9942C11.7859 19.9977 11.8798 19.9997 11.9741 20L12 20ZM12 15C14.46 15 16.6606 15.8327 18.1281 17.1429C19.2964 15.7523 20 13.9583 20 12C20 7.58172 16.4183 4 12 4C7.58172 4 4 7.58172 4 12C4 13.9583 4.70363 15.7523 5.87187 17.1429C7.33938 15.8327 9.54002 15 12 15ZM22 12C22 14.7614 20.8807 17.2614 19.0711 19.0711C17.2614 20.8807 14.7614 22 12 22C9.0653 22 6.42585 20.7358 4.59653 18.7224C2.98322 16.9467 2 14.5881 2 12C2 6.47715 6.47715 2 12 2C17.5228 2 22 6.47715 22 12ZM14 10C14 11.1046 13.1046 12 12 12C10.8954 12 10 11.1046 10 10C10 8.89543 10.8954 8 12 8C13.1046 8 14 8.89543 14 10ZM16 10C16 12.2091 14.2091 14 12 14C9.79086 14 8 12.2091 8 10C8 7.79086 9.79086 6 12 6C14.2091 6 16 7.79086 16 10Z" fill="#272727"/>
</svg>
