<svg width="current" height="current" viewBox="0 0 24 24" fill="none" xmlns="http://www.w3.org/2000/svg">
<path fill-rule="evenodd" clip-rule="evenodd" d="M12 2C6.47715 2 2 6.47715 2 12C2 17.5228 6.47715 22 12 22C17.5228 22 22 17.5228 22 12C22 6.47715 17.5228 2 12 2ZM16.9497 10.0503C17.3402 10.4408 17.3402 11.0739 16.9497 11.4645L12.7104 15.7038L12.7071 15.7071C12.5141 15.9001 12.2619 15.9977 12.009 16C11.7501 16.0023 11.4904 15.9047 11.2929 15.7071L11.2896 15.7038L7.05025 11.4645C6.65972 11.0739 6.65972 10.4408 7.05025 10.0503C7.44077 9.65973 8.07394 9.65973 8.46446 10.0503L12 13.5858L15.5355 10.0503C15.926 9.65973 16.5592 9.65973 16.9497 10.0503Z" fill="#272727"/>
</svg>
