<svg width="current" height="current" viewBox="0 0 24 24" fill="none" xmlns="http://www.w3.org/2000/svg">
<path fill-rule="evenodd" clip-rule="evenodd" d="M12.7075 3.29289C12.5184 3.10359 12.2622 3.00024 12.0002 3C11.7382 3.00024 11.482 3.10359 11.2929 3.29289C11.2237 3.36196 11.1661 3.43998 11.1207 3.52397L2.13738 19.4943C2.09156 19.5723 2.05601 19.657 2.03259 19.7467C2.0015 19.865 1.99304 19.9863 2.00556 20.1046C2.0206 20.2495 2.0666 20.3853 2.13682 20.5051C2.20697 20.6253 2.303 20.7322 2.42231 20.8164C2.51901 20.885 2.62842 20.9368 2.74631 20.9677C2.83607 20.9913 2.92751 21.0019 3.0181 21.0002H20.9823C21.0728 21.0019 21.1643 20.9913 21.2541 20.9677C21.3719 20.9368 21.4814 20.885 21.578 20.8164C21.6974 20.7322 21.7934 20.6253 21.8635 20.5051C21.9339 20.385 21.98 20.249 21.9949 20.1037C22.0073 19.9855 21.9988 19.8644 21.9677 19.7463C21.9442 19.6568 21.9087 19.5722 21.863 19.4943L12.8797 3.52397C12.8343 3.43998 12.7766 3.36196 12.7075 3.29289ZM13.0002 17.0002C13.0002 17.5525 12.5525 18.0002 12.0002 18.0002C11.4479 18.0002 11.0002 17.5525 11.0002 17.0002C11.0002 16.4479 11.4479 16.0002 12.0002 16.0002C12.5525 16.0002 13.0002 16.4479 13.0002 17.0002ZM12.0002 15.0002C12.5525 15.0002 13.0002 14.5525 13.0002 14.0002L13.0002 10.0002C13.0002 9.4479 12.5525 9.00018 12.0002 9.00018C11.4479 9.00018 11.0002 9.4479 11.0002 10.0002L11.0002 14.0002C11.0002 14.5525 11.4479 15.0002 12.0002 15.0002Z" fill="#F9A825"/>
</svg>
