<svg width="current" height="current" viewBox="0 0 24 24" fill="none" xmlns="http://www.w3.org/2000/svg">
<path fill-rule="evenodd" clip-rule="evenodd" d="M11 4C11 3.44772 11.4477 3 12 3H18C19.6569 3 21 4.34315 21 6V18C21 19.6569 19.6569 21 18 21H12C11.4477 21 11 20.5523 11 20C11 19.4477 11.4477 19 12 19H18C18.5523 19 19 18.5523 19 18V6C19 5.44772 18.5523 5 18 5H12C11.4477 5 11 4.55228 11 4ZM11.7071 7.29289L15.7071 11.2929C16.0976 11.6834 16.0976 12.3166 15.7071 12.7071L11.7071 16.7071C11.3166 17.0976 10.6834 17.0976 10.2929 16.7071C9.90237 16.3166 9.90237 15.6834 10.2929 15.2929L12.5858 13H4C3.44772 13 3 12.5523 3 12C3 11.4477 3.44772 11 4 11H12.5858L10.2929 8.70711C9.90237 8.31658 9.90237 7.68342 10.2929 7.29289C10.6834 6.90237 11.3166 6.90237 11.7071 7.29289Z" fill="#272727"/>
</svg>
