<svg width="current" height="current" viewBox="0 0 24 24" fill="none" xmlns="http://www.w3.org/2000/svg">
<path fill-rule="evenodd" clip-rule="evenodd" d="M11.9497 8.70711C12.3403 8.31658 12.3403 7.68342 11.9497 7.29289C11.5592 6.90237 10.9261 6.90237 10.5355 7.29289L6.29625 11.5322L6.29289 11.5355C6.09534 11.7331 5.99772 11.9927 6.00004 12.2516C6.0023 12.5046 6.09992 12.7568 6.29289 12.9498L6.29623 12.9531L10.5355 17.1924C10.9261 17.5829 11.5592 17.5829 11.9497 17.1924C12.3403 16.8018 12.3403 16.1687 11.9497 15.7782L8.41422 12.2426L11.9497 8.70711ZM16.9497 17.1924C16.5592 17.5829 15.9261 17.5829 15.5355 17.1924L11.2962 12.9531C11.2951 12.952 11.294 12.9509 11.2929 12.9498C11.1464 12.8033 11.0549 12.6227 11.0183 12.4336C10.9916 12.2959 10.9941 12.1537 11.0257 12.0169C11.0664 11.8405 11.1554 11.673 11.2929 11.5355C11.294 11.5344 11.2951 11.5333 11.2963 11.5322L15.5355 7.29289C15.9261 6.90237 16.5592 6.90237 16.9497 7.29289C17.3403 7.68342 17.3403 8.31658 16.9497 8.70711L13.4142 12.2426L16.9497 15.7782C17.3403 16.1687 17.3403 16.8018 16.9497 17.1924Z" fill="#272727"/>
</svg>
