<svg width="current" height="current" viewBox="0 0 24 24" fill="none" xmlns="http://www.w3.org/2000/svg">
<path fill-rule="evenodd" clip-rule="evenodd" d="M3.51485 3.51469C3.12432 3.90522 3.12432 4.53838 3.51485 4.92891L19.0712 20.4853C19.4617 20.8758 20.0949 20.8758 20.4854 20.4853C20.8759 20.0947 20.8759 19.4616 20.4854 19.071L4.92906 3.51469C4.53854 3.12417 3.90537 3.12417 3.51485 3.51469ZM18.7509 15.9224C20.2403 14.9072 21.4892 13.5653 22.3947 12C20.3198 8.4132 16.4418 6 12.0001 6C11.0235 6 10.0742 6.11665 9.16529 6.33679L10.8895 8.06095C11.2541 8.02067 11.6247 8 12.0001 8C15.2695 8 18.1745 9.56818 20.0011 12C19.2632 12.9824 18.3493 13.8239 17.3064 14.4779L18.7509 15.9224ZM13.1107 15.9391L14.8349 17.6632C13.926 17.8833 12.9766 18 12.0001 18C7.55839 18 3.68033 15.5868 1.60547 12C2.51097 10.4347 3.7599 9.09285 5.24924 8.07759L6.69371 9.52206C5.65088 10.1761 4.73698 11.0176 3.99907 12C5.82566 14.4318 8.73066 16 12.0001 16C12.3755 16 12.746 15.9793 13.1107 15.9391ZM14.9956 12.167C14.9986 12.1117 15.0001 12.056 15.0001 12C15.0001 10.3431 13.657 9 12.0001 9C11.9441 9 11.8884 9.00154 11.8331 9.00457L14.9956 12.167ZM9.00469 11.833L12.1671 14.9954C12.1118 14.9985 12.0562 15 12.0001 15C10.3433 15 9.00012 13.6569 9.00012 12C9.00012 11.944 9.00166 11.8883 9.00469 11.833Z" fill="#272727"/>
</svg>
