<svg width="current" height="current" viewBox="0 0 24 24" fill="none" xmlns="http://www.w3.org/2000/svg">
<path fill-rule="evenodd" clip-rule="evenodd" d="M12 4C14.2091 4 16.2091 4.89543 17.6569 6.34315L17.6568 6.34315C18.0474 6.73367 18.0474 7.36684 17.6568 7.75736C17.2663 8.14789 16.6332 8.14789 16.2426 7.75736L16.2397 7.75443C15.1542 6.67037 13.6554 6 12 6C8.83065 6 6.23524 8.45734 6.01512 11.5707L6.29289 11.2929C6.68342 10.9024 7.31658 10.9024 7.70711 11.2929C8.09763 11.6834 8.09763 12.3166 7.70711 12.7071L5.70711 14.7071C5.31658 15.0976 4.68342 15.0976 4.29289 14.7071L2.29289 12.7071C1.90237 12.3166 1.90237 11.6834 2.29289 11.2929C2.68342 10.9024 3.31658 10.9024 3.70711 11.2929L4.01003 11.5958C4.22054 7.36534 7.71726 4 12 4ZM12 20C9.79086 20 7.79086 19.1046 6.34314 17.6569H6.34316C5.95263 17.2663 5.95263 16.6332 6.34316 16.2426C6.73368 15.8521 7.36685 15.8521 7.75737 16.2426L7.76029 16.2456C8.84584 17.3296 10.3446 18 12 18C15.1693 18 17.7648 15.5427 17.9849 12.4293L17.7071 12.7071C17.3166 13.0976 16.6834 13.0976 16.2929 12.7071C15.9024 12.3166 15.9024 11.6834 16.2929 11.2929L18.2929 9.29289C18.6834 8.90237 19.3166 8.90237 19.7071 9.29289L21.7071 11.2929C22.0976 11.6834 22.0976 12.3166 21.7071 12.7071C21.3166 13.0976 20.6834 13.0976 20.2929 12.7071L19.99 12.4042C19.7795 16.6347 16.2827 20 12 20Z" fill="#272727"/>
</svg>
