<svg width="current" height="current" viewBox="0 0 24 24" fill="none" xmlns="http://www.w3.org/2000/svg">
<path fill-rule="evenodd" clip-rule="evenodd" d="M12.8858 3.05C12.7093 2.68705 12.3691 2.50693 12.0258 2.5002L12.0158 2.50005L12.0258 2.5H12.0058L12.0158 2.50005L12.0058 2.5002C12.0039 2.50023 12.0019 2.50028 12 2.50033C11.8732 2.50354 11.747 2.53041 11.6294 2.58142C11.4304 2.66773 11.2562 2.82316 11.1458 3.05L8.81583 7.76C8.79833 7.79625 8.77864 7.83109 8.75696 7.86441C8.6052 8.09766 8.35583 8.25625 8.07583 8.3L2.84583 9.06C2.7952 9.0675 2.74649 9.0784 2.6998 9.09238C1.99934 9.30211 1.75208 10.2056 2.29583 10.74L6.05583 14.41C6.08458 14.4387 6.11145 14.4689 6.13636 14.5003C6.31067 14.72 6.38833 15 6.33583 15.28L5.44583 20.46C5.43895 20.5 5.4345 20.5395 5.43233 20.5784C5.39981 21.1618 5.88145 21.61 6.41583 21.61C6.56582 21.61 6.72582 21.57 6.87581 21.49C6.87582 21.49 6.87582 21.49 6.87583 21.49L11.5258 19.04C11.6658 18.96 11.8258 18.93 11.9858 18.93L12 18.9301C12.1553 18.9324 12.31 18.9721 12.4458 19.04L17.0958 21.49C17.2458 21.57 17.4058 21.61 17.5558 21.61C18.1258 21.61 18.6358 21.09 18.5258 20.46L17.6358 15.28C17.5858 14.96 17.6858 14.63 17.9158 14.41L21.6758 10.74C22.2558 10.17 21.9358 9.18 21.1258 9.06L15.9258 8.3C15.6058 8.25 15.3258 8.05 15.1858 7.76L12.8858 3.05ZM12 16.93C12.4804 16.9323 12.9402 17.0511 13.3403 17.2511L13.3593 17.2607L13.3781 17.2706L16.2044 18.7597L15.6647 15.6187L15.6621 15.6037L15.6598 15.5888C15.5187 14.6854 15.7863 13.6855 16.5241 12.9736L18.8097 10.7427L15.6366 10.279L15.6268 10.2775L15.6171 10.276C14.681 10.1298 13.8268 9.54103 13.3871 8.6344L12.0098 5.81401L12 5.83389V16.93Z" fill="#00C389"/>
</svg>
