<svg width="current" height="current" viewBox="0 0 24 24" fill="none" xmlns="http://www.w3.org/2000/svg">
<path fill-rule="evenodd" clip-rule="evenodd" d="M12 6C12.5523 6 13 6.44772 13 7L13 11.5858L14.2929 10.2929C14.6834 9.90237 15.3166 9.90237 15.7071 10.2929C16.0976 10.6834 16.0976 11.3166 15.7071 11.7071L12.7079 14.7063L12.7071 14.7071C12.3166 15.0976 11.6834 15.0976 11.2929 14.7071L11.2923 14.7065L8.29289 11.7071C7.90237 11.3166 7.90237 10.6834 8.29289 10.2929C8.68342 9.90237 9.31658 9.90237 9.70711 10.2929L11 11.5858L11 7C11 6.44772 11.4477 6 12 6ZM6 15C6 14.4477 5.55228 14 5 14C4.44772 14 4 14.4477 4 15V16C4 17.6569 5.34315 19 7 19H17C18.6569 19 20 17.6569 20 16V15C20 14.4477 19.5523 14 19 14C18.4477 14 18 14.4477 18 15V16C18 16.5523 17.5523 17 17 17H7C6.44772 17 6 16.5523 6 16V15Z" fill="#272727"/>
</svg>
