<svg width="current" height="current" viewBox="0 0 24 24" fill="none" xmlns="http://www.w3.org/2000/svg">
<path fill-rule="evenodd" clip-rule="evenodd" d="M5.70777 5.8356C5.78814 5.35341 6.20533 5 6.69417 5H10.9999V9H5.18037L5.70777 5.8356ZM12.9999 9V5H17.3057C17.7945 5 18.2117 5.35341 18.2921 5.8356L18.8195 9H12.9999ZM10.9999 12V11H4.99992L4.99992 19H18.9999V11H12.9999V12C12.9999 12.5523 12.5522 13 11.9999 13C11.4476 13 10.9999 12.5523 10.9999 12ZM3.00341 9.91583C3.00044 9.95047 2.9993 9.98491 2.99992 10.019V19C2.99992 20.1046 3.89535 21 4.99992 21H18.9999C20.1045 21 20.9999 20.1046 20.9999 19V10.0186C21.0005 9.98619 20.9995 9.95353 20.9968 9.92069C20.9941 9.88551 20.9895 9.85085 20.9832 9.81679L20.2648 5.5068C20.0237 4.06024 18.7722 3 17.3057 3H6.69417C5.22765 3 3.97608 4.06024 3.73498 5.5068L3.01658 9.81725C3.0106 9.84959 3.00619 9.88248 3.00341 9.91583ZM16.9999 16H12.9999V18H16.9999V16Z" fill="#272727"/>
</svg>
