<svg width="current" height="current" viewBox="0 0 24 24" fill="none" xmlns="http://www.w3.org/2000/svg">
<path fill-rule="evenodd" clip-rule="evenodd" d="M10 5H5V7H10V5ZM3 5V8V12V16V19C3 20.1046 3.89543 21 5 21H12H19C20.1046 21 21 20.1046 21 19V9C21 7.89543 20.1046 7 19 7H12V5C12 3.89543 11.1046 3 10 3H5C3.89543 3 3 3.89543 3 5ZM12 9V12V16V19H19V9H12ZM10 9H5V11H10V9ZM10 13H5V15H10V13ZM10 17H5V19H10V17ZM13 12C13 11.4477 13.4477 11 14 11H17C17.5523 11 18 11.4477 18 12C18 12.5523 17.5523 13 17 13H14C13.4477 13 13 12.5523 13 12ZM14 15C13.4477 15 13 15.4477 13 16C13 16.5523 13.4477 17 14 17H17C17.5523 17 18 16.5523 18 16C18 15.4477 17.5523 15 17 15H14Z" fill="#272727"/>
</svg>
