<svg width="current" height="current" viewBox="0 0 24 24" fill="none" xmlns="http://www.w3.org/2000/svg">
<path fill-rule="evenodd" clip-rule="evenodd" d="M5 11.0178L12 5.53955L19 11.0178V18.9999L13 18.9999V14C13 13.4477 12.5523 13 12 13C11.4477 13 11 13.4477 11 14V18.9999L5 18.9999L5 11.0178ZM11.9847 20.9999H5C3.89543 20.9999 3 20.1045 3 18.9999V11.0178C3 10.4027 3.28301 9.82188 3.76738 9.4428L10.7674 3.96454C11.4914 3.39789 12.5086 3.39789 13.2326 3.96454L20.2326 9.4428C20.717 9.82188 21 10.4027 21 11.0178V18.9999C21 20.1045 20.1046 20.9999 19 20.9999H12.0153C12.0102 21 12.0051 21 12 21C11.9949 21 11.9898 21 11.9847 20.9999Z" fill="#272727"/>
</svg>
