<svg width="current" height="current" viewBox="0 0 24 24" fill="none" xmlns="http://www.w3.org/2000/svg">
<path fill-rule="evenodd" clip-rule="evenodd" d="M20 12C20 16.4183 16.4183 20 12 20C7.58172 20 4 16.4183 4 12C4 7.58172 7.58172 4 12 4C16.4183 4 20 7.58172 20 12ZM22 12C22 17.5228 17.5228 22 12 22C6.47715 22 2 17.5228 2 12C2 6.47715 6.47715 2 12 2C17.5228 2 22 6.47715 22 12ZM6.68377 7.05132C7.20772 6.87667 7.77404 7.15983 7.94868 7.68377L9.05409 11H10.4692L11.0299 8.75746C11.1411 8.3123 11.5411 8 12 8C12.4589 8 12.8589 8.3123 12.9701 8.75746L13.5308 11H14.9459L16.0513 7.68377C16.226 7.15983 16.7923 6.87667 17.3162 7.05132C17.8402 7.22596 18.1233 7.79228 17.9487 8.31623L17.0541 11H18C18.5523 11 19 11.4477 19 12C19 12.5523 18.5523 13 18 13H16.3874L14.9487 17.3162C14.8081 17.738 14.4059 18.0163 13.9616 17.9993C13.5173 17.9822 13.1377 17.6739 13.0299 17.2425L12 13.1231L10.9701 17.2425C10.8623 17.6739 10.4827 17.9822 10.0384 17.9993C9.5941 18.0163 9.19191 17.738 9.05132 17.3162L7.61257 13H6C5.44772 13 5 12.5523 5 12C5 11.4477 5.44772 11 6 11H6.94591L6.05132 8.31623C5.87667 7.79228 6.15983 7.22596 6.68377 7.05132ZM9.86274 13.4259L9.72076 13H9.96922L9.86274 13.4259ZM14.1373 13.4259L14.0308 13H14.2792L14.1373 13.4259Z" fill="#272727"/>
</svg>
