<svg width="current" height="current" viewBox="0 0 24 24" fill="none" xmlns="http://www.w3.org/2000/svg">
<path fill-rule="evenodd" clip-rule="evenodd" d="M9 5C9 4.44772 9.44772 4 10 4H14C14.5523 4 15 4.44772 15 5V7H9V5ZM7 9V11C7 11.5523 7.44772 12 8 12C8.55228 12 9 11.5523 9 11V9H15V11C15 11.5523 15.4477 12 16 12C16.5523 12 17 11.5523 17 11V9H18V16H6V9H7ZM7 7V5C7 3.34315 8.34315 2 10 2H14C15.6569 2 17 3.34315 17 5V7H18C19.1046 7 20 7.89543 20 9V20C20 21.1046 19.1046 22 18 22H6C4.89543 22 4 21.1046 4 20V9C4 7.89543 4.89543 7 6 7H7ZM6 20V18H18V20H6Z" fill="#272727"/>
</svg>
