<svg width="current" height="current" viewBox="0 0 24 24" fill="none" xmlns="http://www.w3.org/2000/svg">
<path fill-rule="evenodd" clip-rule="evenodd" d="M12.0002 2.99976C12.2622 3 12.5184 3.10335 12.7075 3.29265C12.7766 3.36172 12.8343 3.43974 12.8797 3.52373L21.863 19.4941C21.9087 19.572 21.9442 19.6566 21.9677 19.746C21.9988 19.8642 22.0073 19.9852 21.9949 20.1034C21.98 20.2487 21.9339 20.3848 21.8635 20.5048C21.7934 20.6251 21.6974 20.7319 21.578 20.8162C21.4814 20.8847 21.3719 20.9366 21.2541 20.9674C21.1643 20.991 21.0728 21.0016 20.9823 20.9999H3.0181C2.92751 21.0016 2.83607 20.991 2.74631 20.9674C2.62842 20.9366 2.51901 20.8847 2.42231 20.8162C2.303 20.7319 2.20697 20.6251 2.13682 20.5048C2.0666 20.385 2.0206 20.2493 2.00556 20.1044C1.99304 19.986 2.0015 19.8648 2.03259 19.7464C2.05601 19.6568 2.09156 19.5721 2.13738 19.4941L11.1207 3.52373C11.1661 3.43974 11.2237 3.36172 11.2929 3.29265C11.482 3.10335 11.7382 3 12.0002 2.99976ZM12.0002 6.03966L19.2903 18.9999H4.71002L12.0002 6.03966ZM13.0001 17C13.0001 17.5523 12.5524 18 12.0001 18C11.4478 18 11.0001 17.5523 11.0001 17C11.0001 16.4477 11.4478 16 12.0001 16C12.5524 16 13.0001 16.4477 13.0001 17ZM12.0001 15C12.5524 15 13.0001 14.5523 13.0001 14L13.0001 10C13.0001 9.44771 12.5524 9 12.0001 9C11.4478 9 11.0001 9.44771 11.0001 10L11.0001 14C11.0001 14.5523 11.4478 15 12.0001 15Z" fill="#F9A825"/>
</svg>
