<svg width="current" height="current" viewBox="0 0 24 24" fill="none" xmlns="http://www.w3.org/2000/svg">
<path fill-rule="evenodd" clip-rule="evenodd" d="M12.0503 15.2929C11.6597 15.6834 11.6597 16.3166 12.0503 16.7071C12.4408 17.0976 13.0739 17.0976 13.4645 16.7071L17.7037 12.4678L17.7071 12.4645C17.9047 12.2669 18.0023 12.0073 18 11.7484C17.9977 11.4954 17.9001 11.2432 17.7071 11.0502L17.7038 11.0469L13.4645 6.80763C13.0739 6.41711 12.4408 6.41711 12.0502 6.80763C11.6597 7.19816 11.6597 7.83132 12.0503 8.22185L15.5858 11.7574L12.0503 15.2929ZM7.05025 6.80764C7.44077 6.41711 8.07394 6.41711 8.46446 6.80763L12.7038 11.0469C12.7049 11.048 12.706 11.0491 12.7071 11.0502C12.8536 11.1967 12.9451 11.3773 12.9817 11.5664C13.0083 11.7041 13.0059 11.8463 12.9743 11.9831C12.9336 12.1595 12.8446 12.327 12.7071 12.4645C12.706 12.4656 12.7049 12.4667 12.7037 12.4678L8.46447 16.7071C8.07394 17.0976 7.44078 17.0976 7.05025 16.7071C6.65973 16.3166 6.65973 15.6834 7.05025 15.2929L10.5858 11.7574L7.05025 8.22185C6.65973 7.83132 6.65973 7.19816 7.05025 6.80764Z" fill="#272727"/>
</svg>
