<svg width="current" height="current" viewBox="0 0 24 24" fill="none" xmlns="http://www.w3.org/2000/svg">
<path fill-rule="evenodd" clip-rule="evenodd" d="M16 7H4V17H16V7ZM4 5C2.89543 5 2 5.89543 2 7V17C2 18.1046 2.89543 19 4 19H16C17.1046 19 18 18.1046 18 17V16L20.5528 17.2763C21.2177 17.6088 22 17.1253 22 16.3819V7.61799C22 6.87461 21.2177 6.39111 20.5528 6.72356L18 7.99996V7C18 5.89543 17.1046 5 16 5H4ZM20 14.7639L18 13.7639V10.236L20 9.23602V14.7639ZM10 14C9.44772 14 9 14.4477 9 15C9 15.5523 9.44772 16 10 16H14C14.5523 16 15 15.5523 15 15C15 14.4477 14.5523 14 14 14H10Z" fill="#272727"/>
</svg>
