<svg width="current" height="current" viewBox="0 0 24 24" fill="none" xmlns="http://www.w3.org/2000/svg">
<g clip-path="url(#clip0_6297_7279)">
<path d="M17.1884 5H6.81158C4.70614 5 3 6.70614 3 8.81158V14.3915C3 16.497 4.70614 18.2031 6.81158 18.2031H17.1884C19.2939 18.2031 21 16.497 21 14.3915V8.81158C21 6.70614 19.2939 5 17.1884 5ZM15.7831 11.5238C15.7571 11.5756 15.7105 11.6171 15.6586 11.643L9.64823 14.8894C9.50303 14.9672 9.32152 14.9153 9.23855 14.7701C9.21262 14.7234 9.20225 14.6767 9.20225 14.6249V8.10631C9.19706 7.94036 9.33189 7.80035 9.49784 7.80035C9.5497 7.80035 9.60156 7.81072 9.64823 7.83665L15.6638 11.1141C15.809 11.1971 15.8608 11.3786 15.7831 11.5238Z" fill="#272727"/>
</g>
<defs>
<clipPath id="clip0_6297_7279">
<rect width="18" height="13.2031" fill="white" transform="translate(3 5)"/>
</clipPath>
</defs>
</svg>
