<svg width="current" height="current" viewBox="0 0 24 24" fill="none" xmlns="http://www.w3.org/2000/svg">
<path d="M12.0258 2.5C11.6758 2.5 11.3258 2.68 11.1458 3.05L8.81583 7.76C8.67583 8.05 8.39583 8.25 8.07583 8.3L2.84583 9.06C2.03583 9.18 1.71583 10.17 2.29583 10.74L6.05583 14.41C6.28583 14.64 6.39583 14.96 6.33583 15.28L5.44583 20.46C5.33583 21.1 5.84583 21.61 6.41583 21.61C6.56583 21.61 6.72583 21.57 6.87583 21.49L11.5258 19.04C11.6658 18.96 11.8258 18.93 11.9858 18.93C12.1458 18.93 12.3058 18.97 12.4458 19.04L17.0958 21.49C17.2458 21.57 17.4058 21.61 17.5558 21.61C18.1258 21.61 18.6358 21.09 18.5258 20.46L17.6358 15.28C17.5858 14.96 17.6858 14.63 17.9158 14.41L21.6758 10.74C22.2558 10.17 21.9358 9.18 21.1258 9.06L15.9258 8.3C15.6058 8.25 15.3258 8.05 15.1858 7.76L12.8858 3.05C12.7058 2.68 12.3558 2.5 12.0058 2.5L12.0258 2.5Z" fill="#00C389"/>
</svg>
