<svg width="current" height="current" viewBox="0 0 24 24" fill="none" xmlns="http://www.w3.org/2000/svg">
<path fill-rule="evenodd" clip-rule="evenodd" d="M15.8284 21L21 15.8284C22.5621 14.2663 22.5621 11.7337 21 10.1716L15 4.17157C14.2499 3.42143 13.2324 3 12.1716 3H7C4.79086 3 3 4.79086 3 7V12.1716C3 13.2324 3.42143 14.2499 4.17157 15L10.1716 21C11.7337 22.5621 14.2663 22.5621 15.8284 21ZM19.5858 14.4142L14.4142 19.5858C13.6332 20.3668 12.3668 20.3668 11.5858 19.5858L5.58579 13.5858C5.21071 13.2107 5 12.702 5 12.1716V7C5 5.89543 5.89543 5 7 5H12.1716C12.702 5 13.2107 5.21071 13.5858 5.58579L19.5858 11.5858C20.3668 12.3668 20.3668 13.6332 19.5858 14.4142ZM8 10C9.10457 10 10 9.10457 10 8C10 6.89543 9.10457 6 8 6C6.89543 6 6 6.89543 6 8C6 9.10457 6.89543 10 8 10Z" fill="#272727"/>
</svg>
