<svg width="current" height="current" viewBox="0 0 24 24" fill="none" xmlns="http://www.w3.org/2000/svg">
<g clip-path="url(#clip0_6297_7269)">
<path d="M9.27515 11.3866H10.4017L9.83592 9.7894L9.27515 11.3866Z" fill="#272727"/>
<path d="M11.7836 3C6.3911 3 2 6.44979 2 10.7007C2 13.4495 3.82754 15.8629 6.57636 17.2097C6.42615 17.7104 5.61502 20.5243 5.57497 20.7446C5.57497 20.7446 5.57497 20.9099 5.66509 20.975C5.74019 21.005 5.82031 21.005 5.89541 20.975C6.20584 20.9299 9.46036 18.6417 10.0211 18.2462C10.5969 18.3263 11.1777 18.3663 11.7586 18.3663C17.151 18.3663 21.5221 14.9216 21.5221 10.6707C21.5221 6.41975 17.1761 3 11.7836 3ZM7.06203 12.8487C7.05702 13.1491 6.80668 13.3944 6.50626 13.3894C6.20083 13.3944 5.95049 13.1541 5.94047 12.8487V9.50403H5.05925C4.75382 9.53407 4.48345 9.30876 4.45341 9.00334C4.42337 8.69791 4.64868 8.42754 4.9541 8.3975C4.98915 8.39249 5.0242 8.39249 5.05925 8.3975H7.94325C8.24868 8.42754 8.47399 8.69791 8.44395 9.00334C8.41892 9.26871 8.20862 9.479 7.94325 9.50403H7.06203V12.8487ZM11.7986 13.2843C11.6834 13.3344 11.5633 13.3594 11.4381 13.3594L11.4431 13.3894C11.2478 13.4145 11.0626 13.3143 10.9775 13.1391L10.6971 12.4131H8.97469L8.6943 13.114C8.60417 13.2843 8.41391 13.3844 8.22364 13.3594C8.10348 13.3594 7.9783 13.3344 7.86815 13.2843C7.71293 13.2092 7.56273 13.0139 7.73296 12.4832L9.07983 8.93825C9.21001 8.52267 9.65063 8.29235 10.0612 8.41752C10.3115 8.49263 10.5018 8.6879 10.5819 8.93825L11.9288 12.4832C12.099 13.0139 11.9538 13.2092 11.7986 13.2843ZM14.6476 13.3043L12.8401 13.2893C12.5547 13.2943 12.3143 13.074 12.2993 12.7886V8.96328C12.2993 8.64284 12.5597 8.38748 12.8751 8.38748C13.1905 8.38748 13.4509 8.64284 13.4509 8.96328V12.2729H14.6476C14.933 12.2729 15.1633 12.5032 15.1633 12.7886C15.1633 13.074 14.933 13.3043 14.6476 13.3043ZM18.8634 13.2392C18.7683 13.3193 18.6481 13.3644 18.5229 13.3644C18.3477 13.3694 18.1775 13.2843 18.0723 13.1441L16.7505 11.3917L16.5202 11.612V12.8437C16.5152 13.1541 16.2648 13.4045 15.9544 13.4045L15.9694 13.3644C15.659 13.3644 15.4086 13.114 15.4086 12.8036V8.94826C15.3786 8.63783 15.6089 8.36245 15.9193 8.33241C16.2298 8.30236 16.5051 8.53268 16.5352 8.84312C16.5402 8.87816 16.5402 8.91321 16.5352 8.94826V10.1599L18.1024 8.60779C18.1875 8.52768 18.2976 8.48261 18.4128 8.48261C18.558 8.48762 18.6982 8.5427 18.8033 8.64784C18.8985 8.74298 18.9535 8.86815 18.9686 9.00334C18.9736 9.12851 18.9285 9.25369 18.8434 9.34882L17.5566 10.6106L18.9435 12.4481C19.1388 12.6885 19.1038 13.0389 18.8634 13.2392Z" fill="#272727"/>
</g>
<defs>
<clipPath id="clip0_6297_7269">
<rect width="19.5221" height="18" fill="white" transform="translate(2 3)"/>
</clipPath>
</defs>
</svg>
