<svg width="current" height="current" viewBox="0 0 24 24" fill="none" xmlns="http://www.w3.org/2000/svg">
<path fill-rule="evenodd" clip-rule="evenodd" d="M4 20V4C4 2.89543 4.89543 2 6 2H10C11.1046 2 12 2.89543 12 4V8C12 9.10457 12.8954 10 14 10H18C19.1046 10 20 10.8954 20 12V20C20 21.1046 19.1046 22 18 22H6C4.89543 22 4 21.1046 4 20ZM15 9H19.2929C19.6834 9 20 8.68342 20 8.29289C20 8.10536 19.9255 7.9255 19.7929 7.79289L14.2071 2.20711C14.0745 2.0745 13.8946 2 13.7071 2C13.3166 2 13 2.31658 13 2.70711V7C13 8.10457 13.8954 9 15 9ZM13.3433 13.8259C12.9461 13.3845 12.2539 13.3845 11.8567 13.8259L10.0328 15.8525L9.848 15.5568C9.45633 14.9301 8.54367 14.9301 8.152 15.5568L6.95625 17.47C6.53997 18.136 7.01881 19 7.80425 19H9.44536H10.1958H15.7546C16.6204 19 17.0771 17.9746 16.4979 17.331L13.3433 13.8259ZM9 14C9.55228 14 10 13.5523 10 13C10 12.4477 9.55228 12 9 12C8.44772 12 8 12.4477 8 13C8 13.5523 8.44772 14 9 14Z" fill="#272727"/>
</svg>
