<svg width="current" height="current" viewBox="0 0 24 24" fill="none" xmlns="http://www.w3.org/2000/svg">
<path fill-rule="evenodd" clip-rule="evenodd" d="M11.5585 11H19V19H5L5 8L10.5585 8L11.5585 11ZM12.4558 7.36754C12.4127 7.23796 12.3571 7.11506 12.2907 7C11.9386 6.38991 11.2827 6 10.5585 6H7V5H17V9H13L12.4558 7.36754ZM5 6V5C5 3.89543 5.89543 3 7 3H17C18.1046 3 19 3.89543 19 5V9C20.1046 9 21 9.89543 21 11V19C21 20.1046 20.1046 21 19 21H5C3.89543 21 3 20.1046 3 19V8C3 6.89543 3.89543 6 5 6ZM13 16C12.4477 16 12 16.4477 12 17C12 17.5523 12.4477 18 13 18H17C17.5523 18 18 17.5523 18 17C18 16.4477 17.5523 16 17 16H13Z" fill="#272727"/>
</svg>
