<svg width="current" height="current" viewBox="0 0 24 24" fill="none" xmlns="http://www.w3.org/2000/svg">
<path fill-rule="evenodd" clip-rule="evenodd" d="M6 2H13H13.4737C13.9944 2 14.4946 2.20306 14.8679 2.56601L19.3942 6.96654C19.7815 7.3431 20 7.86033 20 8.40053V9V20C20 21.1046 19.1046 22 18 22H6C4.89543 22 4 21.1046 4 20V4C4 2.89543 4.89543 2 6 2ZM17.588 8L14 4.51164V8H17.588ZM13 10H18L18 20L6 20L6 4L12 4V9C12 9.55229 12.4477 10 13 10ZM7 9C7 8.44772 7.44772 8 8 8H10C10.5523 8 11 8.44772 11 9C11 9.55228 10.5523 10 10 10H8C7.44772 10 7 9.55228 7 9ZM8 12C7.44772 12 7 12.4477 7 13C7 13.5523 7.44772 14 8 14H16C16.5523 14 17 13.5523 17 13C17 12.4477 16.5523 12 16 12H8ZM8 16C7.44772 16 7 16.4477 7 17C7 17.5523 7.44772 18 8 18H16C16.5523 18 17 17.5523 17 17C17 16.4477 16.5523 16 16 16H8Z" fill="#272727"/>
</svg>
