<svg width="current" height="current" viewBox="0 0 24 24" fill="none" xmlns="http://www.w3.org/2000/svg">
<path fill-rule="evenodd" clip-rule="evenodd" d="M20 7C20 7.55229 19.5523 8 19 8L5 8C4.44771 8 4 7.55228 4 7C4 6.44772 4.44771 6 5 6H19C19.5523 6 20 6.44772 20 7ZM20 12C20 12.5523 19.5523 13 19 13L5 13C4.44771 13 4 12.5523 4 12C4 11.4477 4.44771 11 5 11L19 11C19.5523 11 20 11.4477 20 12ZM19 18C19.5523 18 20 17.5523 20 17C20 16.4477 19.5523 16 19 16L5 16C4.44771 16 4 16.4477 4 17C4 17.5523 4.44771 18 5 18L19 18Z" fill="#272727"/>
</svg>
