<svg width="current" height="current" viewBox="0 0 24 24" fill="none" xmlns="http://www.w3.org/2000/svg">
<path fill-rule="evenodd" clip-rule="evenodd" d="M18 4H6V16H18V4ZM4 19V16V4C4 2.89543 4.89543 2 6 2H18C19.1046 2 20 2.89543 20 4V16C20 17.1046 19.1046 18 18 18H6V19C6 19.5523 6.44772 20 7 20H19C19.5523 20 20 20.4477 20 21C20 21.5523 19.5523 22 19 22H7C5.34315 22 4 20.6569 4 19ZM12 5C11.4477 5 11 5.44772 11 6C11 6.55228 11.4477 7 12 7H16C16.5523 7 17 6.55228 17 6C17 5.44772 16.5523 5 16 5H12Z" fill="#272727"/>
</svg>
