<svg width="current" height="current" viewBox="0 0 24 24" fill="none" xmlns="http://www.w3.org/2000/svg">
<path fill-rule="evenodd" clip-rule="evenodd" d="M18 6C18 5.44772 17.5523 5 17 5C16.4477 5 16 5.44772 16 6L16 15.5858L14.7071 14.2929C14.3166 13.9024 13.6834 13.9024 13.2929 14.2929C12.9024 14.6834 12.9024 15.3166 13.2929 15.7071L16.2921 18.7063L16.2929 18.7071C16.6834 19.0976 17.3166 19.0976 17.7071 18.7071L17.7079 18.7063L20.7071 15.7071C21.0976 15.3166 21.0976 14.6834 20.7071 14.2929C20.3166 13.9024 19.6834 13.9024 19.2929 14.2929L18 15.5858L18 6ZM4 6C3.44772 6 3 6.44772 3 7C3 7.55228 3.44772 8 4 8H14C14.5523 8 15 7.55228 15 7C15 6.44772 14.5523 6 14 6H4ZM4 11C3.44772 11 3 11.4477 3 12C3 12.5523 3.44772 13 4 13H12C12.5523 13 13 12.5523 13 12C13 11.4477 12.5523 11 12 11H4ZM3 17C3 16.4477 3.44772 16 4 16H10C10.5523 16 11 16.4477 11 17C11 17.5523 10.5523 18 10 18H4C3.44772 18 3 17.5523 3 17Z" fill="#272727"/>
</svg>
