<svg width="current" height="current" viewBox="0 0 24 24" fill="none" xmlns="http://www.w3.org/2000/svg">
<path fill-rule="evenodd" clip-rule="evenodd" d="M11 17C14.3137 17 17 14.3137 17 11C17 7.68629 14.3137 5 11 5C7.68629 5 5 7.68629 5 11C5 14.3137 7.68629 17 11 17ZM11 19C13.0292 19 14.882 18.2445 16.2923 16.9994L16.7886 17.4957L16.7886 17.4957L17.1422 18.5563L17.1421 18.5564L19.2634 20.6777L19.2635 20.6777C19.654 21.0682 20.2872 21.0682 20.6777 20.6777C21.0682 20.2871 21.0682 19.654 20.6777 19.2634L19.9706 18.5563L19.9705 18.5564L18.5563 17.1422L18.5564 17.1421L17.4958 16.7886L16.9995 16.2923C18.2445 14.8819 19 13.0292 19 11C19 6.58172 15.4183 3 11 3C6.58172 3 3 6.58172 3 11C3 15.4183 6.58172 19 11 19Z" fill="#272727"/>
</svg>
