<svg width="current" height="current" viewBox="0 0 24 24" fill="none" xmlns="http://www.w3.org/2000/svg">
<path fill-rule="evenodd" clip-rule="evenodd" d="M16 8C16 9.07829 15.576 10.0534 14.8813 10.7745C14.381 11.2939 14 12.0418 14 12.9192V14H10V12.9192C10 12.0418 9.61896 11.2939 9.11866 10.7745C8.42402 10.0534 8 9.07829 8 8C8 5.79086 9.79086 4 12 4C14.2091 4 16 5.79086 16 8ZM16 12.9192C16 12.6348 16.1244 12.3669 16.3218 12.162C17.361 11.0832 18 9.61623 18 8C18 4.68629 15.3137 2 12 2C8.68629 2 6 4.68629 6 8C6 9.61623 6.63904 11.0832 7.67824 12.162C7.87558 12.3669 8 12.6348 8 12.9192V15C8 15.5523 8.44772 16 9 16H15C15.5523 16 16 15.5523 16 15V12.9192ZM8 18C8 17.4477 8.44772 17 9 17H15C15.5523 17 16 17.4477 16 18C16 18.5523 15.5523 19 15 19H9C8.44772 19 8 18.5523 8 18ZM10 21C10 20.4477 10.4477 20 11 20H13C13.5523 20 14 20.4477 14 21C14 21.5523 13.5523 22 13 22H11C10.4477 22 10 21.5523 10 21ZM10 6.66667C10 7.03486 10.2985 7.33333 10.6667 7.33333H11.7239L10.1953 8.86193C10.0046 9.05259 9.94758 9.33934 10.0508 9.58846C10.154 9.83757 10.397 10 10.6667 10H13.3333C13.7015 10 14 9.70152 14 9.33333C14 8.96514 13.7015 8.66667 13.3333 8.66667H12.2761L13.8047 7.13807C13.9954 6.94741 14.0524 6.66066 13.9492 6.41154C13.846 6.16243 13.603 6 13.3333 6H10.6667C10.2985 6 10 6.29848 10 6.66667Z" fill="#272727"/>
</svg>
