<svg width="current" height="current" viewBox="0 0 24 24" fill="none" xmlns="http://www.w3.org/2000/svg">
<path fill-rule="evenodd" clip-rule="evenodd" d="M8 3C8 2.44772 8.44772 2 9 2H14C15.6569 2 17 3.34315 17 5V8H18C19.1046 8 20 8.89543 20 10V20C20 21.1046 19.1046 22 18 22H6C4.89543 22 4 21.1046 4 20V10C4 8.89543 4.89543 8 6 8H15V5C15 4.44772 14.5523 4 14 4H9C8.44772 4 8 3.55228 8 3ZM6 10H16H18V20H6V10ZM13 13C13 12.4477 12.5523 12 12 12C11.4477 12 11 12.4477 11 13V17C11 17.5523 11.4477 18 12 18C12.5523 18 13 17.5523 13 17V13Z" fill="#272727"/>
</svg>
