<svg width="current" height="current" viewBox="0 0 24 24" fill="none" xmlns="http://www.w3.org/2000/svg">
<path fill-rule="evenodd" clip-rule="evenodd" d="M12.0001 16C8.73066 16 5.82566 14.4318 3.99907 12C5.82566 9.56817 8.73066 8 12.0001 8C15.2695 8 18.1745 9.56818 20.0011 12C18.1745 14.4318 15.2695 16 12.0001 16ZM12.0001 6C16.4418 6 20.3198 8.4132 22.3947 12C20.3198 15.5868 16.4418 18 12.0001 18C7.55839 18 3.68033 15.5868 1.60547 12C3.68033 8.41319 7.55839 6 12.0001 6ZM13.0001 12C13.0001 12.5523 12.5524 13 12.0001 13C11.4478 13 11.0001 12.5523 11.0001 12C11.0001 11.4477 11.4478 11 12.0001 11C12.5524 11 13.0001 11.4477 13.0001 12ZM15.0001 12C15.0001 13.6569 13.6569 15 12.0001 15C10.3432 15 9.00008 13.6569 9.00008 12C9.00008 10.3431 10.3432 9 12.0001 9C13.6569 9 15.0001 10.3431 15.0001 12Z" fill="#272727"/>
</svg>
