<svg width="current" height="current" viewBox="0 0 24 24" fill="none" xmlns="http://www.w3.org/2000/svg">
<path fill-rule="evenodd" clip-rule="evenodd" d="M5.25597 4.00002L7.65597 12H6C5.50664 12 4.78887 12.1398 4.1657 12.5885C3.49153 13.0739 3 13.8741 3 15C3 16.1259 3.49153 16.9262 4.1657 17.4116C4.78887 17.8602 5.50664 18 6 18H6.17071C6.06015 18.3128 6 18.6494 6 19C6 20.6569 7.34315 22 9 22C10.6569 22 12 20.6569 12 19C12 18.6494 11.9398 18.3128 11.8293 18H14.1707C14.0602 18.3128 14 18.6494 14 19C14 20.6569 15.3431 22 17 22C18.6569 22 20 20.6569 20 19C20 18.6494 19.9398 18.3128 19.8293 18H21C21.5523 18 22 17.5523 22 17C22 16.4477 21.5523 16 21 16H17H9H6C5.82669 16 5.54446 15.9398 5.3343 15.7885C5.17513 15.6739 5 15.4741 5 15C5 14.5259 5.17513 14.3262 5.3343 14.2116C5.54446 14.0602 5.82669 14 6 14H8.97674C8.99194 14.0004 9.0072 14.0004 9.02249 14H15.8303C16.9141 14 17.9137 13.4154 18.445 12.4708L20.695 8.4708C21.8199 6.47099 20.3748 4.00002 18.0803 4.00002H7.34403L6.96428 2.7342C6.94435 2.66173 6.91647 2.59257 6.88164 2.52769C6.81103 2.39555 6.71296 2.28384 6.59697 2.19768C6.42068 2.06673 6.20302 1.99482 5.97753 2.00002H3C2.44772 2.00002 2 2.44773 2 3.00002C2 3.5523 2.44772 4.00002 3 4.00002H5.25597ZM9.74403 12L7.94403 6.00002H18.0803C18.8451 6.00002 19.3268 6.82368 18.9519 7.49028L16.7019 11.4903C16.5248 11.8052 16.1916 12 15.8303 12H9.74403ZM17 18C16.4477 18 16 18.4477 16 19C16 19.5523 16.4477 20 17 20C17.5523 20 18 19.5523 18 19C18 18.4477 17.5523 18 17 18ZM9 18C8.44772 18 8 18.4477 8 19C8 19.5523 8.44772 20 9 20C9.55228 20 10 19.5523 10 19C10 18.4477 9.55228 18 9 18Z" fill="#272727"/>
</svg>
