<svg width="current" height="current" viewBox="0 0 24 24" fill="none" xmlns="http://www.w3.org/2000/svg">
<path fill-rule="evenodd" clip-rule="evenodd" d="M3 4C2.44772 4 2 4.44772 2 5C2 5.55228 2.44772 6 3 6H9.17071C9.58254 7.16519 10.6938 8 12 8C13.3062 8 14.4175 7.16519 14.8293 6H21C21.5523 6 22 5.55228 22 5C22 4.44772 21.5523 4 21 4H14.8293C14.4175 2.83481 13.3062 2 12 2C10.6938 2 9.58254 2.83481 9.17071 4H3ZM12 4C12.5523 4 13 4.44772 13 5C13 5.55228 12.5523 6 12 6C11.4477 6 11 5.55228 11 5C11 4.44772 11.4477 4 12 4ZM2 12C2 11.4477 2.44772 11 3 11H14.1707C14.5825 9.83481 15.6938 9 17 9C18.3062 9 19.4175 9.83481 19.8293 11H21C21.5523 11 22 11.4477 22 12C22 12.5523 21.5523 13 21 13H19.8293C19.4175 14.1652 18.3062 15 17 15C15.6938 15 14.5825 14.1652 14.1707 13H3C2.44772 13 2 12.5523 2 12ZM18 12C18 11.4477 17.5523 11 17 11C16.4477 11 16 11.4477 16 12C16 12.5523 16.4477 13 17 13C17.5523 13 18 12.5523 18 12ZM2 19C2 18.4477 2.44772 18 3 18H4.17071C4.58254 16.8348 5.69378 16 7 16C8.30622 16 9.41746 16.8348 9.82929 18H21C21.5523 18 22 18.4477 22 19C22 19.5523 21.5523 20 21 20H9.82929C9.41746 21.1652 8.30622 22 7 22C5.69378 22 4.58254 21.1652 4.17071 20H3C2.44772 20 2 19.5523 2 19ZM8 19C8 18.4477 7.55228 18 7 18C6.44772 18 6 18.4477 6 19C6 19.5523 6.44772 20 7 20C7.55228 20 8 19.5523 8 19Z" fill="#272727"/>
</svg>
