<svg width="current" height="current" viewBox="0 0 24 24" fill="none" xmlns="http://www.w3.org/2000/svg">
<path fill-rule="evenodd" clip-rule="evenodd" d="M10 8.44164V9.00012V13.0001V13.5586L15 15.2253L15 6.77497L10 8.44164ZM8 9.00012V13.0001H4V9.00012H8ZM14.3675 17.1226L8 15.0001H7V17.0001C7 18.657 5.65685 20.0001 4 20.0001C3.44772 20.0001 3 19.5524 3 19.0001C3 18.4478 3.44772 18.0001 4 18.0001C4.55228 18.0001 5 17.5524 5 17.0001V15.0001H4C2.89543 15.0001 2 14.1047 2 13.0001V9.00012C2 7.89555 2.89543 7.00012 4 7.00012H8L14.3675 4.8776C15.6626 4.44592 17 5.40986 17 6.77497V15.2253C17 16.5904 15.6626 17.5543 14.3675 17.1226ZM18.7183 7.40247C18.1993 7.59136 17.9317 8.1652 18.1206 8.68418C18.3095 9.20316 18.8833 9.47075 19.4023 9.28185L21.2817 8.59781C21.8007 8.40892 22.0683 7.83508 21.8794 7.3161C21.6905 6.79712 21.1166 6.52953 20.5977 6.71843L18.7183 7.40247ZM18 11.0001C18 10.4478 18.4477 10.0001 19 10.0001H21C21.5523 10.0001 22 10.4478 22 11.0001C22 11.5524 21.5523 12.0001 21 12.0001H19C18.4477 12.0001 18 11.5524 18 11.0001ZM19.4023 12.7184C18.8833 12.5295 18.3095 12.7971 18.1206 13.3161C17.9317 13.835 18.1993 14.4089 18.7183 14.5978L20.5977 15.2818C21.1166 15.4707 21.6905 15.2031 21.8794 14.6841C22.0683 14.1652 21.8007 13.5913 21.2817 13.4024L19.4023 12.7184Z" fill="#272727"/>
</svg>
