<svg width="current" height="current" viewBox="0 0 24 24" fill="none" xmlns="http://www.w3.org/2000/svg">
<path fill-rule="evenodd" clip-rule="evenodd" d="M12.1317 6.00865C12.3421 6.03644 12.5454 6.13119 12.7071 6.29289L12.7074 6.29315L15.7071 9.29289C16.0976 9.68342 16.0976 10.3166 15.7071 10.7071C15.3166 11.0976 14.6834 11.0976 14.2929 10.7071L13 9.41421V14C13 14.5523 12.5523 15 12 15C11.4477 15 11 14.5523 11 14L11 9.41421L9.70711 10.7071C9.31658 11.0976 8.68342 11.0976 8.29289 10.7071C7.90237 10.3166 7.90237 9.68342 8.29289 9.29289L11.2923 6.2935L11.2929 6.29289C11.5028 6.08303 11.7827 5.98594 12.0574 6.00164C12.0822 6.00306 12.107 6.00539 12.1317 6.00865ZM6 15C6 14.4477 5.55228 14 5 14C4.44772 14 4 14.4477 4 15V16C4 17.6569 5.34315 19 7 19H17C18.6569 19 20 17.6569 20 16V15C20 14.4477 19.5523 14 19 14C18.4477 14 18 14.4477 18 15V16C18 16.5523 17.5523 17 17 17H7C6.44772 17 6 16.5523 6 16V15Z" fill="#272727"/>
</svg>
