<svg width="current" height="current" viewBox="0 0 24 24" fill="none" xmlns="http://www.w3.org/2000/svg">
<path fill-rule="evenodd" clip-rule="evenodd" d="M20.2475 3.00009C19.4665 2.21904 18.2002 2.21905 17.4191 3.00009L6.29289 14.1263L6 14.4192V14.8334V17.0001V18.0001H7H9.16667H9.58088L9.87377 17.7072L21 6.58097C21.781 5.79993 21.7811 4.5336 21 3.75255L20.2475 3.00009ZM8 16.0001V15.2476L18.8333 4.41431L19.5858 5.16676L8.75245 16.0001H8ZM5 5.00009H11C11.5523 5.00009 12 5.44781 12 6.00009C12 6.55238 11.5523 7.00009 11 7.00009H5L5 19.0001H16V14.0001C16 13.4478 16.4477 13.0001 17 13.0001C17.5523 13.0001 18 13.4478 18 14.0001V19.0001C18 20.1047 17.1046 21.0001 16 21.0001H5C3.89543 21.0001 3 20.1047 3 19.0001V7.00009C3 5.89552 3.89543 5.00009 5 5.00009Z" fill="#272727"/>
</svg>
