<svg width="current" height="current" viewBox="0 0 24 24" fill="none" xmlns="http://www.w3.org/2000/svg">
<path fill-rule="evenodd" clip-rule="evenodd" d="M3.33826 6.99917L3.33963 6.99997C3.06361 7.47824 3.2275 8.08973 3.70575 8.36584C4.18404 8.64198 4.79563 8.47811 5.07177 7.99981C5.07962 7.98623 5.0871 7.97254 5.09424 7.95875C6.48325 5.59031 9.05589 4 12 4C15.8816 4 19.1176 6.76455 19.8464 10.4321L19.7071 10.2929C19.3166 9.90237 18.6834 9.90237 18.2929 10.2929C17.9024 10.6834 17.9024 11.3166 18.2929 11.7071L20.2929 13.7071C20.6834 14.0976 21.3166 14.0976 21.7071 13.7071L21.7184 13.6956L23.7071 11.707C24.0976 11.3164 24.0976 10.6833 23.7071 10.2927C23.3166 9.90222 22.6834 9.90222 22.2929 10.2927L21.9127 10.673C21.2636 5.77742 17.0729 2 12 2C8.29889 2 5.06742 4.01062 3.33826 6.99917ZM13.0001 9C13.0001 9.55228 12.5524 10 12.0001 10C11.4478 10 11.0001 9.55228 11.0001 9C11.0001 8.44772 11.4478 8 12.0001 8C12.5524 8 13.0001 8.44772 13.0001 9ZM13.8572 11.3563C14.5533 10.8069 15.0001 9.95562 15.0001 9C15.0001 7.34315 13.6569 6 12.0001 6C10.3432 6 9.00007 7.34315 9.00007 9C9.00007 9.9556 9.44686 10.8068 10.1429 11.3562C8.30105 12.0935 7 13.8948 7 16C7 16.5523 7.44771 17 8 17C8.55228 17 9 16.5523 9 16C9 14.3431 10.3431 13 12 13C13.6569 13 15 14.3431 15 16C15 16.5523 15.4477 17 16 17C16.5523 17 17 16.5523 17 16C17 13.8948 15.699 12.0935 13.8572 11.3563ZM5.70708 12.2929C6.0976 12.6834 6.0976 13.3166 5.70708 13.7071C5.31655 14.0976 4.68339 14.0976 4.29286 13.7071L4.15356 13.5678C4.8823 17.2354 8.1183 20 12 20C14.9432 20 17.5152 18.4106 18.9045 16.0434C18.912 16.0287 18.9199 16.0142 18.9282 15.9998C19.2044 15.5215 19.816 15.3576 20.2942 15.6338C20.7725 15.9099 20.9364 16.5215 20.6603 16.9998C20.6602 16.9999 20.6602 16.9999 20.6602 17L20.6617 17.0009C18.9325 19.9894 15.701 22 12 22C6.92707 22 2.7364 18.2226 2.08728 13.3271L1.70711 13.7073C1.31658 14.0978 0.683418 14.0978 0.292893 13.7073C-0.097631 13.3167 -0.0976311 12.6836 0.292893 12.293L2.28155 10.3044L2.29286 10.2929C2.68339 9.90237 3.31655 9.90237 3.70708 10.2929L5.70708 12.2929Z" fill="#272727"/>
</svg>
