<svg width="current" height="current" viewBox="0 0 24 24" fill="none" xmlns="http://www.w3.org/2000/svg">
<path fill-rule="evenodd" clip-rule="evenodd" d="M12.02 2.50015C12.3632 2.50688 12.7034 2.687 12.88 3.04995L15.18 7.75995C15.32 8.04995 15.6 8.24995 15.92 8.29995L21.12 9.05995C21.93 9.17995 22.25 10.17 21.67 10.74L17.91 14.41C17.68 14.63 17.58 14.96 17.63 15.28L18.52 20.4599C18.63 21.0899 18.12 21.61 17.55 21.61C17.4 21.61 17.24 21.57 17.09 21.49L12.44 19.04C12.3 18.97 12.14 18.93 11.98 18.93C11.82 18.93 11.66 18.96 11.52 19.04L6.86997 21.49C6.71997 21.57 6.55997 21.61 6.40997 21.61C5.83997 21.61 5.32997 21.0999 5.43997 20.4599L6.32997 15.28C6.38997 14.96 6.27997 14.64 6.04997 14.41L2.28997 10.74C1.70997 10.17 2.02997 9.17995 2.83997 9.05995L8.06997 8.29995C8.38997 8.24995 8.66997 8.04995 8.80997 7.75995L11.14 3.04995C11.3165 2.687 11.6567 2.50688 12 2.50015C12.0033 2.50008 12.0066 2.50003 12.01 2.5C12.0133 2.50003 12.0166 2.50008 12.02 2.50015ZM12 2.50015C12.0033 2.50008 12.0066 2.50003 12.01 2.5C12.0133 2.50003 12.0166 2.50008 12.02 2.50015H12ZM10.6057 8.64045L12.004 5.81396L13.3812 8.63436C13.821 9.54099 14.6751 10.1297 15.6112 10.276L15.621 10.2775L18.8038 10.7427L16.5183 12.9736C15.7805 13.6854 15.5128 14.6853 15.6539 15.5887L15.6563 15.6037L16.1985 18.7596L13.3534 17.2606L13.3344 17.2511C12.9305 17.0491 12.4655 16.93 11.98 16.93C11.5925 16.93 11.0795 16.9995 10.5668 17.2815L7.76141 18.7596L8.2992 15.6296C8.482 14.619 8.1208 13.6523 7.46418 12.9957L7.45562 12.9872L5.15761 10.7442L8.36816 10.2776L8.37872 10.276C9.3127 10.13 10.1651 9.54362 10.6057 8.64045Z" fill="#00C389"/>
</svg>
