<svg width="current" height="current" viewBox="0 0 24 24" fill="none" xmlns="http://www.w3.org/2000/svg">
<path fill-rule="evenodd" clip-rule="evenodd" d="M6 3C6 2.44772 6.44772 2 7 2C7.55228 2 8 2.44772 8 3V4H16V3C16 2.44772 16.4477 2 17 2C17.5523 2 18 2.44772 18 3V4H19C20.1046 4 21 4.89543 21 6V8V10V20C21 21.1046 20.1046 22 19 22H5C3.89543 22 3 21.1046 3 20V10V8V6C3 4.89543 3.89543 4 5 4H6V3ZM16 6C16 6.55228 16.4477 7 17 7C17.5523 7 18 6.55228 18 6H19V8H5V6H6C6 6.55228 6.44772 7 7 7C7.55228 7 8 6.55228 8 6H16ZM19 10V20H5L5 10H19ZM9 12V14H7V12H9ZM9 18V16H7V18H9ZM11 12H13V14H11V12ZM13 16H11V18H13V16ZM17 12V14H15V12H17ZM17 18V16H15V18H17Z" fill="#272727"/>
</svg>
