<svg width="current" height="current" viewBox="0 0 24 24" fill="none" xmlns="http://www.w3.org/2000/svg">
<path fill-rule="evenodd" clip-rule="evenodd" d="M15.4281 10.6201C15.8263 9.66701 16 8.90617 16 8.4C16 5.8464 14.0895 4 12 4C9.91049 4 8 5.8464 8 8.4C8 8.90617 8.17369 9.66701 8.57193 10.6201C8.95813 11.5443 9.50056 12.5194 10.0988 13.4119C10.6999 14.3087 11.3195 15.0657 11.8338 15.5728C11.8927 15.6309 11.9482 15.6836 12 15.7313C12.0518 15.6836 12.1073 15.6309 12.1662 15.5728C12.6805 15.0657 13.3001 14.3087 13.9012 13.4119C14.4994 12.5194 15.0419 11.5443 15.4281 10.6201ZM11.5328 16.0931C11.533 16.0924 11.5426 16.0868 11.561 16.0787C11.5418 16.0899 11.5326 16.0939 11.5328 16.0931ZM12.439 16.0787C12.4574 16.0868 12.467 16.0924 12.4672 16.0931C12.4674 16.0939 12.4582 16.0899 12.439 16.0787ZM12 18C13.5 18 18 11.9346 18 8.4C18 4.86538 15.3137 2 12 2C8.68629 2 6 4.86538 6 8.4C6 11.9346 10.5 18 12 18ZM12 9C12.5523 9 13 8.55228 13 8C13 7.44772 12.5523 7 12 7C11.4477 7 11 7.44772 11 8C11 8.55228 11.4477 9 12 9ZM12 11C13.6569 11 15 9.65685 15 8C15 6.34315 13.6569 5 12 5C10.3431 5 9 6.34315 9 8C9 9.65685 10.3431 11 12 11ZM6.92851 16.3714C7.13363 15.8586 6.88421 15.2767 6.37143 15.0715C5.85864 14.8664 5.27667 15.1158 5.07156 15.6286L3.62012 19.2572C3.09463 20.571 4.06214 22 5.47707 22H18.523C19.9379 22 20.9054 20.571 20.38 19.2572L18.9285 15.6286C18.7234 15.1158 18.1414 14.8664 17.6286 15.0715C17.1159 15.2767 16.8664 15.8586 17.0716 16.3714L18.523 20L5.47707 20L6.92851 16.3714Z" fill="#272727"/>
</svg>
