<svg width="current" height="current" viewBox="0 0 24 24" fill="none" xmlns="http://www.w3.org/2000/svg">
<path fill-rule="evenodd" clip-rule="evenodd" d="M12.9022 4.8308L13.0748 5.98106L14.1598 6.39993C14.6445 6.58701 15.0995 6.83568 15.5152 7.1369L16.4543 7.8173L17.5114 7.34027L18.3331 6.96941L19.5232 9.03059L18.7912 9.55681L17.8517 10.2321L17.9688 11.3831C17.9894 11.5854 18 11.7911 18 12C18 12.2089 17.9894 12.4146 17.9688 12.6168L17.8517 13.7679L18.7911 14.4432L19.5232 14.9694L18.3331 17.0306L17.5114 16.6597L16.4543 16.1827L15.5152 16.8631C15.1839 17.1031 14.8277 17.3098 14.4514 17.4785L13.3948 17.9523L13.2796 19.1045L13.19 20L10.81 20L10.7204 19.1045L10.6052 17.9523L9.54858 17.4785C9.17228 17.3098 8.816 17.1031 8.48468 16.8631L7.54558 16.1827L6.48855 16.6597L5.66677 17.0306L4.68294 15.3266L5.34104 14.8025L6.24979 14.0789L6.07147 12.931C6.02451 12.6287 5.99997 12.3179 5.99997 12C5.99997 11.7911 6.01056 11.5854 6.03113 11.3832L6.14821 10.2321L5.20878 9.55682L4.47674 9.03059L5.46057 7.32656L6.24439 7.63483L7.32768 8.06088L8.2332 7.32938C8.63336 7.00611 9.07512 6.73373 9.54858 6.52145L10.6052 6.0477L10.7204 4.8955L10.81 4L12.7776 4L12.9022 4.8308ZM8.81988 3.80099L8.73033 4.69649C8.09789 4.98006 7.50898 5.34336 6.97639 5.7736L6.19257 5.46533C5.27127 5.10299 4.22351 5.4692 3.72852 6.32656L2.74469 8.03059C2.23094 8.92044 2.47505 10.0548 3.30936 10.6545L4.0414 11.1808C4.014 11.4501 3.99997 11.7234 3.99997 12C3.99997 12.421 4.03249 12.8345 4.09517 13.238L3.43707 13.762C2.66263 14.3787 2.45589 15.4692 2.95089 16.3266L3.93472 18.0306C4.44847 18.9204 5.55291 19.2762 6.48946 18.8536L7.31125 18.4827C7.75249 18.8024 8.22766 19.0781 8.73033 19.3035L8.81988 20.199C8.92212 21.2214 9.78245 22 10.81 22H13.19C14.2175 22 15.0778 21.2214 15.1801 20.199L15.2696 19.3035C15.7723 19.0781 16.2474 18.8024 16.6887 18.4827L17.5105 18.8536C18.447 19.2762 19.5514 18.9204 20.0652 18.0306L21.2552 15.9694C21.769 15.0796 21.5249 13.9452 20.6906 13.3455L19.9585 12.8192C19.9859 12.5499 20 12.2766 20 12C20 11.7234 19.9859 11.4501 19.9585 11.1808L20.6906 10.6545C21.5249 10.0548 21.769 8.92044 21.2552 8.03059L20.0652 5.96941C19.5514 5.07957 18.447 4.72379 17.5105 5.14645L16.6887 5.51732C16.135 5.11616 15.5279 4.7842 14.8801 4.53412L14.7555 3.70332C14.6086 2.72428 13.7676 2 12.7776 2H10.81C9.78245 2 8.92212 2.77859 8.81988 3.80099ZM14 12C14 13.1046 13.1045 14 12 14C10.8954 14 9.99996 13.1046 9.99996 12C9.99996 10.8954 10.8954 10 12 10C13.1045 10 14 10.8954 14 12ZM16 12C16 14.2091 14.2091 16 12 16C9.79082 16 7.99996 14.2091 7.99996 12C7.99996 9.79086 9.79082 8 12 8C14.2091 8 16 9.79086 16 12Z" fill="#272727"/>
</svg>
