<svg width="current" height="current" viewBox="0 0 24 24" fill="none" xmlns="http://www.w3.org/2000/svg">
<path fill-rule="evenodd" clip-rule="evenodd" d="M12 22C17.5228 22 22 17.5228 22 12C22 6.47715 17.5228 2 12 2C6.47715 2 2 6.47715 2 12C2 17.5228 6.47715 22 12 22ZM13 16C13 16.5523 12.5523 17 12 17C11.4477 17 11 16.5523 11 16C11 15.4477 11.4477 15 12 15C12.5523 15 13 15.4477 13 16ZM12 14C12.5523 14 13 13.5523 13 13L13 8C13 7.44771 12.5523 7 12 7C11.4477 7 11 7.44771 11 8L11 12.999L11 13C11 13.5523 11.4477 14 12 14Z" fill="#FF3153"/>
</svg>
