<svg width="current" height="current" viewBox="0 0 24 24" fill="none" xmlns="http://www.w3.org/2000/svg">
<path d="M5.61347 9.67371C5.38218 9.67371 5.16307 9.77141 5.00482 9.94237C4.6579 10.2965 4.6579 10.8705 5.00482 11.2246C5.16307 11.3895 5.38218 11.4871 5.61347 11.4871C6.11864 11.4871 6.52643 11.0781 6.52643 10.5713C6.52643 10.0645 6.11864 9.6554 5.61347 9.6554V9.67371Z" fill="#272727"/>
<path d="M13.173 9.67371C12.9418 9.67371 12.7226 9.77141 12.5644 9.93626C12.2175 10.2965 12.2175 10.8644 12.5644 11.2246C12.7226 11.3895 12.9418 11.4871 13.173 11.4871C13.6782 11.4871 14.086 11.0781 14.086 10.5713C14.086 10.0645 13.6782 9.6554 13.173 9.6554V9.67371Z" fill="#272727"/>
<path d="M18.2005 9.6737C17.9692 9.67981 17.7501 9.77139 17.5918 9.94236C17.251 10.3026 17.251 10.8643 17.5918 11.2246C17.9387 11.5726 18.4987 11.5726 18.8456 11.2307C18.8456 11.2307 18.8456 11.2307 18.8517 11.2246C19.2047 10.8765 19.2108 10.3087 18.8639 9.95457C18.8578 9.94846 18.8578 9.94846 18.8517 9.94236C18.6813 9.76529 18.4439 9.6676 18.2005 9.6737Z" fill="#272727"/>
<path d="M20.4401 3.00003H3.39806C2.08339 2.99392 1.00609 4.06244 1 5.3813C1 5.3874 1 5.39351 1 5.39962V15.0712C1.00609 16.3901 2.06513 17.4525 3.3798 17.4586H10.0749C10.0749 17.4586 11.3713 21 11.8399 21C12.3086 21 13.7146 17.4586 13.7146 17.4586H20.4096C21.7243 17.4525 22.7834 16.3901 22.7894 15.0712V5.39962C22.7955 4.08686 21.7487 3.01834 20.4401 3.00003ZM7.33598 11.939C6.96471 12.3175 6.44736 12.519 5.91784 12.4824C5.49788 12.4946 5.09009 12.3664 4.75533 12.116V12.3908H3.43457V6.78564H4.71881V8.92878C5.10834 8.6357 5.58309 8.48916 6.07 8.51359C6.54474 8.53801 6.98905 8.75782 7.28729 9.12417C7.61596 9.53326 7.79246 10.04 7.78638 10.5651C7.82898 11.0658 7.66465 11.5604 7.33598 11.939ZM10.087 12.4335H8.77847V8.95931C8.82716 8.55022 8.57153 8.15945 8.16982 8.05565V6.66963C8.16982 6.66963 9.99575 6.77953 10.1053 9.00816L10.087 12.4335ZM15.2179 11.3711C15.1023 11.6215 14.9379 11.8535 14.7371 12.0428C14.5301 12.2381 14.2867 12.3908 14.0189 12.4885C13.745 12.5923 13.4589 12.6472 13.1668 12.6472C12.5886 12.6472 12.0347 12.4274 11.6087 12.0366C11.4017 11.8413 11.2313 11.6092 11.1157 11.3528C11.0061 11.1025 10.9513 10.8338 10.9513 10.5651C10.9513 10.2904 11.0061 10.0217 11.1157 9.77139C11.2374 9.51494 11.4017 9.28292 11.6087 9.09364C12.0286 8.69676 12.5886 8.47695 13.1668 8.48306C13.4589 8.48306 13.745 8.53801 14.0189 8.6357C14.2867 8.7395 14.5301 8.89215 14.7371 9.08753C14.9379 9.27682 15.1023 9.50884 15.2179 9.75918C15.437 10.2721 15.437 10.846 15.2179 11.3589V11.3711ZM20.3549 11.9267C20.4462 12.6533 20.221 13.3799 19.7462 13.9295C19.2167 14.3569 18.5229 14.5217 17.8594 14.3691V13.3372C18.4559 13.4105 18.9976 12.9831 19.0767 12.3847C19.0767 12.3786 19.0767 12.3725 19.0767 12.3664V12.116C18.7724 12.5068 18.2855 12.7144 17.7925 12.6655C17.2995 12.69 16.8186 12.4885 16.49 12.116C16.1613 11.7008 15.997 11.1818 16.0274 10.6567C15.997 10.0706 16.1796 9.49052 16.5387 9.02648C16.8917 8.62349 17.4029 8.39758 17.9386 8.41589C18.3524 8.39147 18.7602 8.53801 19.0645 8.82498V8.51359H20.3549V11.9267Z" fill="#272727"/>
</svg>
