<svg width="current" height="current" viewBox="0 0 24 24" fill="none" xmlns="http://www.w3.org/2000/svg">
<path fill-rule="evenodd" clip-rule="evenodd" d="M20.9567 15.7234C20.9134 16.6813 20.7619 17.3361 20.54 17.9098C20.3073 18.4997 20.0042 19.003 19.5009 19.5063C18.9976 20.0096 18.4997 20.3127 17.9044 20.5454C17.3307 20.7673 16.6759 20.9188 15.718 20.9621C14.7547 21.0054 14.4516 21.0162 12.0054 21.0162C9.55923 21.0162 9.25075 21.0054 8.29284 20.9621C7.33494 20.9188 6.6801 20.7673 6.10643 20.5454C5.51654 20.3127 5.01323 20.0096 4.50992 19.5063C4.00661 19.003 3.70355 18.5051 3.47084 17.9098C3.24895 17.3361 3.09741 16.6813 3.05412 15.7234C3.01082 14.7601 3 14.457 3 12.0108C3 9.56464 3.01082 9.25616 3.05412 8.29826C3.09741 7.34035 3.24895 6.68551 3.47084 6.11185C3.70355 5.52195 4.00661 5.01864 4.50992 4.51533C5.01323 4.01203 5.51112 3.70896 6.10643 3.47625C6.66927 3.24895 7.32411 3.09741 8.28202 3.05412C9.24534 3.01082 9.54841 3 11.9946 3C14.4408 3 14.7492 3.01082 15.7072 3.05412C16.6651 3.09741 17.3199 3.24895 17.8936 3.47084C18.4835 3.70355 18.9868 4.00661 19.4901 4.50992C19.9934 5.01323 20.2965 5.51112 20.5292 6.10643C20.7511 6.6801 20.9026 7.33494 20.9459 8.29284C20.9892 9.25616 21 9.55923 21 12.0054C21 14.4516 20.9892 14.7601 20.9459 15.718L20.9567 15.7234ZM12.0001 7.38365C9.44568 7.38365 7.37292 9.45641 7.37292 12.0108C7.37292 14.5653 9.44568 16.638 12.0001 16.638C14.5545 16.638 16.6273 14.5653 16.6273 12.0108C16.6273 9.45641 14.5545 7.38365 12.0001 7.38365ZM12.0001 15.0144C10.3441 15.0144 8.9965 13.6723 8.9965 12.0108C8.9965 10.3494 10.3386 9.00722 12.0001 9.00722C13.6616 9.00722 15.0037 10.3494 15.0037 12.0108C15.0037 13.6723 13.6616 15.0144 12.0001 15.0144ZM15.7234 7.19963C15.7234 6.59891 16.2105 6.11725 16.8058 6.11725C17.4065 6.11725 17.8882 6.59891 17.8882 7.19963C17.8882 7.80035 17.4065 8.28201 16.8058 8.28201C16.205 8.28201 15.7234 7.80035 15.7234 7.19963Z" fill="#272727"/>
</svg>
