<svg width="current" height="current" viewBox="0 0 24 24" fill="none" xmlns="http://www.w3.org/2000/svg">
<path fill-rule="evenodd" clip-rule="evenodd" d="M20.2475 3.00009C19.4665 2.21904 18.2002 2.21905 17.4191 3.00009L6.29289 14.1263L6 14.4192V14.8334V17.0001V18.0001H7H9.16667H9.58088L9.87377 17.7072L21 6.58097C21.781 5.79993 21.7811 4.5336 21 3.75255L20.2475 3.00009ZM8 16.0001V15.2476L18.8333 4.41431L19.5858 5.16676L8.75245 16.0001H8ZM4 19.0001C3.44772 19.0001 3 19.4478 3 20.0001C3 20.5524 3.44772 21.0001 4 21.0001H20C20.5523 21.0001 21 20.5524 21 20.0001C21 19.4478 20.5523 19.0001 20 19.0001H4Z" fill="#272727"/>
</svg>
