<svg width="current" height="current" viewBox="0 0 24 24" fill="none" xmlns="http://www.w3.org/2000/svg">
<path fill-rule="evenodd" clip-rule="evenodd" d="M7.05022 15.5355C6.65969 15.926 6.65969 16.5592 7.05022 16.9497C7.44074 17.3402 8.07391 17.3402 8.46443 16.9497L12 13.4141L15.5356 16.9497C15.9261 17.3402 16.5593 17.3402 16.9498 16.9497C17.3403 16.5592 17.3403 15.926 16.9498 15.5355L13.4142 11.9999L16.9497 8.46443C17.3402 8.07391 17.3402 7.44074 16.9497 7.05022C16.5592 6.65969 15.926 6.65969 15.5355 7.05022L12 10.5857L8.4645 7.05022C8.07398 6.65969 7.44081 6.65969 7.05029 7.05022C6.65976 7.44074 6.65976 8.07391 7.05029 8.46443L10.5858 11.9999L7.05022 15.5355Z" fill="#272727"/>
</svg>
