<svg width="current" height="current" viewBox="0 0 24 24" fill="none" xmlns="http://www.w3.org/2000/svg">
<g clip-path="url(#clip0_6297_7283)">
<path d="M7.20091 8.99818H3V21H7.20091V8.99818Z" fill="#272727"/>
<path d="M5.09766 3C3.93954 3.00546 2.99993 3.94507 3.00539 5.10319C3.01086 6.2613 3.95046 7.20091 5.10858 7.19545C6.2667 7.18998 7.20084 6.25584 7.20084 5.09772C7.19538 3.93961 6.25577 3 5.09766 3Z" fill="#272727"/>
<path d="M21 12.6856C20.716 10.424 19.5852 8.99818 16.526 8.99818C14.3409 8.99818 13.4941 9.33688 12.997 10.2819V8.99818H9.59912V20.9727H13.1063V14.7178C13.1063 13.1499 13.4012 11.9863 15.3405 11.9863C17.2798 11.9863 17.4055 13.4449 17.4055 14.8379V20.9727H21.011C21.011 20.9727 21.0656 13.21 21 12.6856Z" fill="#272727"/>
</g>
<defs>
<clipPath id="clip0_6297_7283">
<rect width="18.0328" height="18" fill="white" transform="translate(3 3)"/>
</clipPath>
</defs>
</svg>
