<svg width="current" height="current" viewBox="0 0 24 24" fill="none" xmlns="http://www.w3.org/2000/svg">
<path fill-rule="evenodd" clip-rule="evenodd" d="M9 2H15L16 3H20C20.5523 3 21 3.44772 21 4C21 4.55228 20.5523 5 20 5H4C3.44772 5 3 4.55228 3 4C3 3.44772 3.44772 3 4 3H8L9 2ZM6 7V20H18V7C18 6.44772 18.4477 6 19 6C19.5523 6 20 6.44772 20 7V20C20 21.1046 19.1046 22 18 22H6C4.89543 22 4 21.1046 4 20V7C4 6.44772 4.44772 6 5 6C5.55228 6 6 6.44772 6 7ZM11 9V10V16V17C11 17.5523 10.5523 18 10 18C9.44772 18 9 17.5523 9 17V16V10V9C9 8.44772 9.44772 8 10 8C10.5523 8 11 8.44772 11 9ZM15 10V9C15 8.44772 14.5523 8 14 8C13.4477 8 13 8.44772 13 9V10V16V17C13 17.5523 13.4477 18 14 18C14.5523 18 15 17.5523 15 17V16V10Z" fill="#272727"/>
</svg>
