<svg width="current" height="current" viewBox="0 0 24 24" fill="none" xmlns="http://www.w3.org/2000/svg">
<path fill-rule="evenodd" clip-rule="evenodd" d="M8.29289 2.29289C8.68342 1.90237 9.31658 1.90237 9.70711 2.29289C10.0976 2.68342 10.0976 3.31658 9.70711 3.70711L7.41419 6.00002L11.9921 6C11.9947 6 11.9974 6 12 6C16.4183 6 20 9.58172 20 14C20 18.4183 16.4183 22 12 22C7.9197 22 4.55286 18.9453 4.06165 14.998C3.99344 14.45 4.44772 14 5 14C5.55229 14 5.99127 14.4511 6.08226 14.9958C6.55661 17.8356 9.02554 20 12 20C15.3137 20 18 17.3137 18 14C18 10.6863 15.3137 8 12 8L7.41424 8.00002L9.70711 10.2929C10.0976 10.6834 10.0976 11.3166 9.70711 11.7071C9.31658 12.0976 8.68342 12.0976 8.29289 11.7071L4.29352 7.70773L4.29289 7.70711C4.14645 7.56066 4.05492 7.38009 4.01831 7.19099C3.95729 6.87583 4.04882 6.53697 4.29289 6.29289L8.29289 2.29289Z" fill="#272727"/>
</svg>
