<svg width="current" height="current" viewBox="0 0 24 24" fill="none" xmlns="http://www.w3.org/2000/svg">
<path fill-rule="evenodd" clip-rule="evenodd" d="M8.53238 7.00001L8.53238 7L9.13238 6L14.8676 6L15.4676 6.99997L15.4676 7L15.4686 7.0017L16.0463 8H17.1997H20V18H4V8H6.80031H7.95368L8.53136 7.00173L8.53238 7.00001ZM17.1997 6L17.1826 5.97101L16.5826 4.97101C16.2212 4.3686 15.5701 4 14.8676 4H9.13238C8.42985 4 7.77884 4.3686 7.41739 4.97101L6.81739 5.97101L6.80031 6H4C2.89543 6 2 6.89543 2 8V18C2 19.1046 2.89543 20 4 20H20C21.1046 20 22 19.1046 22 18V8C22 6.89543 21.1046 6 20 6H17.1997ZM14 13C14 14.1046 13.1046 15 12 15C10.8954 15 10 14.1046 10 13C10 11.8954 10.8954 11 12 11C13.1046 11 14 11.8954 14 13ZM16 13C16 15.2091 14.2091 17 12 17C9.79086 17 8 15.2091 8 13C8 10.7909 9.79086 9 12 9C14.2091 9 16 10.7909 16 13Z" fill="#272727"/>
</svg>
