<svg width="current" height="current" viewBox="0 0 24 24" fill="none" xmlns="http://www.w3.org/2000/svg">
<path fill-rule="evenodd" clip-rule="evenodd" d="M7.10461 2.55421C7.05543 2.65281 7.02205 2.76067 7.0078 2.87448C7.00145 2.92422 6.99891 2.97376 7 3.02276V4H4C2.89543 4 2 4.89543 2 6V9C2 9.74708 2.40961 10.3985 3.01651 10.7419C3.00562 10.8264 3 10.9125 3 11V19C3 20.1046 3.89543 21 5 21H19C20.1046 21 21 20.1046 21 19V11C21 10.9125 20.9944 10.8264 20.9835 10.7419C21.5904 10.3985 22 9.74708 22 9V6C22 4.89543 21.1046 4 20 4H17V3.02277C17.0011 2.97375 16.9986 2.9242 16.9922 2.87444C16.9779 2.76013 16.9443 2.65181 16.8947 2.55285C16.8262 2.4155 16.7282 2.29856 16.6107 2.20807C16.4066 2.05093 16.1439 1.97358 15.8752 2.00771C15.8277 2.01363 15.7812 2.02288 15.736 2.03523L12 2.96922L8.26405 2.03523C8.21883 2.02288 8.17233 2.01363 8.12479 2.00771C7.85612 1.97358 7.59336 2.05093 7.3893 2.20807C7.27142 2.29886 7.17312 2.41627 7.10461 2.55421ZM11 6H4V9H5H11V6ZM13 6V9H19H20V6H13ZM5 11V19H11V11H5ZM13 19V11H19V19H13Z" fill="#272727"/>
</svg>
