<svg width="current" height="current" viewBox="0 0 24 24" fill="none" xmlns="http://www.w3.org/2000/svg">
<path fill-rule="evenodd" clip-rule="evenodd" d="M9 17V15H7H5V5L19 5V15H13.4286H12.7424L12.2007 15.4213L9 17.9107V17ZM3 15C3 16.1046 3.89543 17 5 17H7V19V19.9554C7 20.7875 7.95708 21.2556 8.61394 20.7447L13.4286 17H19C20.1046 17 21 16.1046 21 15V5C21 3.89543 20.1046 3 19 3H5C3.89543 3 3 3.89543 3 5V15ZM8 11C8.55228 11 9 10.5523 9 10C9 9.44772 8.55228 9 8 9C7.44772 9 7 9.44772 7 10C7 10.5523 7.44772 11 8 11ZM13 10C13 10.5523 12.5523 11 12 11C11.4477 11 11 10.5523 11 10C11 9.44772 11.4477 9 12 9C12.5523 9 13 9.44772 13 10ZM16 11C16.5523 11 17 10.5523 17 10C17 9.44772 16.5523 9 16 9C15.4477 9 15 9.44772 15 10C15 10.5523 15.4477 11 16 11Z" fill="#272727"/>
</svg>
