<svg width="current" height="current" viewBox="0 0 24 24" fill="none" xmlns="http://www.w3.org/2000/svg">
<path fill-rule="evenodd" clip-rule="evenodd" d="M8 4H20V16H8V4ZM6 4C6 2.89543 6.89543 2 8 2H20C21.1046 2 22 2.89543 22 4V16C22 17.1046 21.1046 18 20 18H8C6.89543 18 6 17.1046 6 16V4ZM4 8V19V20H5H16H18C18.5523 20 19 20.4477 19 21C19 21.5523 18.5523 22 18 22H16H3C2.44772 22 2 21.5523 2 21V8V6C2 5.44772 2.44772 5 3 5C3.55228 5 4 5.44772 4 6V8ZM15.5406 8.82588C15.1434 8.3845 14.4513 8.3845 14.0541 8.82588L12.2301 10.8525L12.0454 10.5568C11.6537 9.93012 10.741 9.93013 10.3494 10.5568L9.1536 12.47C8.73732 13.136 9.21616 14 10.0016 14H11.6427H12.3931H17.952C18.8178 14 19.2745 12.9746 18.6953 12.331L15.5406 8.82588ZM11.1973 9C11.7496 9 12.1973 8.55228 12.1973 8C12.1973 7.44772 11.7496 7 11.1973 7C10.6451 7 10.1973 7.44772 10.1973 8C10.1973 8.55228 10.6451 9 11.1973 9Z" fill="#272727"/>
</svg>
