<svg width="current" height="current" viewBox="0 0 24 24" fill="none" xmlns="http://www.w3.org/2000/svg">
<path fill-rule="evenodd" clip-rule="evenodd" d="M4 4V20C4 21.1046 4.89543 22 6 22H18C19.1046 22 20 21.1046 20 20V12C20 10.8954 19.1046 10 18 10H14C12.8954 10 12 9.10457 12 8V4C12 2.89543 11.1046 2 10 2H6C4.89543 2 4 2.89543 4 4ZM19.2929 9H15C13.8954 9 13 8.10457 13 7V2.70711C13 2.31658 13.3166 2 13.7071 2C13.8946 2 14.0745 2.0745 14.2071 2.20711L19.7929 7.79289C19.9255 7.9255 20 8.10536 20 8.29289C20 8.68342 19.6834 9 19.2929 9ZM9.5 19L15.5 16L9.5 13V19Z" fill="#272727"/>
</svg>
