<svg width="current" height="current" viewBox="0 0 24 24" fill="none" xmlns="http://www.w3.org/2000/svg">
<path fill-rule="evenodd" clip-rule="evenodd" d="M13 4C13 3.44772 12.5523 3 12 3H6C4.34315 3 3 4.34315 3 6V18C3 19.6569 4.34315 21 6 21H12C12.5523 21 13 20.5523 13 20C13 19.4477 12.5523 19 12 19H6C5.44772 19 5 18.5523 5 18V6C5 5.44772 5.44772 5 6 5H12C12.5523 5 13 4.55228 13 4ZM16.7071 7.29289L20.7071 11.2929C21.0976 11.6834 21.0976 12.3166 20.7071 12.7071L16.7071 16.7071C16.3166 17.0976 15.6834 17.0976 15.2929 16.7071C14.9024 16.3166 14.9024 15.6834 15.2929 15.2929L17.5858 13H9C8.44772 13 8 12.5523 8 12C8 11.4477 8.44772 11 9 11H17.5858L15.2929 8.70711C14.9024 8.31658 14.9024 7.68342 15.2929 7.29289C15.6834 6.90237 16.3166 6.90237 16.7071 7.29289Z" fill="#272727"/>
</svg>
