<svg width="current" height="current" viewBox="0 0 24 24" fill="none" xmlns="http://www.w3.org/2000/svg">
<path fill-rule="evenodd" clip-rule="evenodd" d="M12 3.87769L13.501 5.15689C14.1417 5.70286 14.9383 6.0328 15.7773 6.09976L17.7433 6.25664L17.9002 8.2226C17.9671 9.06167 18.2971 9.85823 18.843 10.4989L20.1222 12L18.843 13.501C18.2971 14.1417 17.9671 14.9383 17.9002 15.7773L17.7433 17.7433L15.7773 17.9002C14.9383 17.9671 14.1417 18.2971 13.501 18.843L12 20.1222L10.4989 18.843C9.85823 18.2971 9.06167 17.9671 8.2226 17.9002L6.25665 17.7433L6.09976 15.7773C6.0328 14.9383 5.70286 14.1417 5.15689 13.501L3.87769 12L5.15689 10.4989C5.70286 9.85823 6.0328 9.06167 6.09976 8.2226L6.25664 6.25665L8.2226 6.09976C9.06167 6.0328 9.85823 5.70286 10.4989 5.15689L12 3.87769ZM10.7027 2.35546C11.4502 1.71843 12.5497 1.71843 13.2972 2.35546L14.7983 3.63466C15.1186 3.90765 15.5169 4.07262 15.9364 4.1061L17.9024 4.26298C18.8814 4.34111 19.6588 5.11853 19.7369 6.09755L19.8938 8.06351C19.9273 8.48304 20.0923 8.88132 20.3653 9.20165L21.6445 10.7027C22.2815 11.4502 22.2815 12.5497 21.6445 13.2972L20.3653 14.7983C20.0923 15.1186 19.9273 15.5169 19.8938 15.9364L19.7369 17.9024C19.6588 18.8814 18.8814 19.6588 17.9024 19.7369L15.9364 19.8938C15.5169 19.9273 15.1186 20.0923 14.7983 20.3653L13.2972 21.6445C12.5497 22.2815 11.4502 22.2815 10.7027 21.6445L9.20165 20.3653C8.88132 20.0923 8.48304 19.9273 8.06351 19.8938L6.09755 19.7369C5.11853 19.6588 4.34111 18.8814 4.26298 17.9024L4.1061 15.9364C4.07262 15.5169 3.90765 15.1186 3.63467 14.7983L2.35546 13.2972C1.71843 12.5497 1.71843 11.4502 2.35546 10.7027L3.63466 9.20165C3.90765 8.88132 4.07262 8.48304 4.1061 8.06351L4.26298 6.09755C4.34111 5.11853 5.11853 4.34111 6.09755 4.26298L8.06351 4.1061C8.48304 4.07262 8.88132 3.90765 9.20165 3.63467L10.7027 2.35546ZM16.7071 9.29285C17.0976 9.68338 17.0976 10.3165 16.7071 10.7071L11.7071 15.7071C11.3165 16.0976 10.6834 16.0976 10.2929 15.7071L7.29285 12.7071C6.90233 12.3165 6.90233 11.6834 7.29285 11.2929C7.68338 10.9023 8.31654 10.9023 8.70707 11.2929L11 13.5857L15.2929 9.29285C15.6834 8.90233 16.3165 8.90233 16.7071 9.29285Z" fill="#272727"/>
</svg>
