<svg width="current" height="current" viewBox="0 0 24 24" fill="none" xmlns="http://www.w3.org/2000/svg">
<path fill-rule="evenodd" clip-rule="evenodd" d="M20 4H8V16H20V4ZM8 2C6.89543 2 6 2.89543 6 4V16C6 17.1046 6.89543 18 8 18H20C21.1046 18 22 17.1046 22 16V4C22 2.89543 21.1046 2 20 2H8ZM2 8V21C2 21.5523 2.44772 22 3 22H16H18C18.5523 22 19 21.5523 19 21C19 20.4477 18.5523 20 18 20H16H5H4V19V8V6C4 5.44772 3.55228 5 3 5C2.44772 5 2 5.44772 2 6V8ZM11.5 13L17.5 10L11.5 7V13Z" fill="#272727"/>
</svg>
