<svg width="current" height="current" viewBox="0 0 24 24" fill="none" xmlns="http://www.w3.org/2000/svg">
<path fill-rule="evenodd" clip-rule="evenodd" d="M5.8921 5H18.1082L18.8859 19H5.11432L5.8921 5ZM3.89518 4.88906C3.95406 3.82923 4.83063 3 5.8921 3H18.1082C19.1696 3 20.0462 3.82923 20.1051 4.88906L20.8829 18.8891C20.9465 20.0355 20.0341 21 18.8859 21H5.11432C3.96615 21 3.05371 20.0355 3.1174 18.8891L3.89518 4.88906ZM14.0001 9C14.0001 9.55228 13.5524 10 13.0001 10H11.0001C10.4478 10 10.0001 9.55228 10.0001 9V7C10.0001 6.44772 9.55241 6 9.00012 6C8.44784 6 8.00012 6.44772 8.00012 7V9C8.00012 10.6569 9.34327 12 11.0001 12H13.0001C14.657 12 16.0001 10.6569 16.0001 9V7C16.0001 6.44772 15.5524 6 15.0001 6C14.4478 6 14.0001 6.44772 14.0001 7V9Z" fill="#272727"/>
</svg>
