<svg width="current" height="current" viewBox="0 0 24 24" fill="none" xmlns="http://www.w3.org/2000/svg">
<path fill-rule="evenodd" clip-rule="evenodd" d="M12 5.94591L12.6964 6.05287C14.8689 6.38657 16.5333 8.26742 16.5333 10.5333V15.5574L17.5096 16.1391C17.8076 16.3166 18 16.6369 18 17C18 17.5523 17.5523 18 17 18H11.001C11.0003 18 10.9997 18 10.999 18H7C6.44772 18 6 17.5523 6 17C6 16.6369 6.19237 16.3166 6.49036 16.1391L7.46667 15.5574V10.5333C7.46667 8.26742 9.13105 6.38657 11.3036 6.05287L12 5.94591ZM10.5858 20H7C5.34315 20 4 18.6569 4 17C4 15.9034 4.58838 14.9442 5.46667 14.4209V10.5333C5.46667 7.2651 7.86642 4.55736 11 4.07605V3C11 2.44772 11.4477 2 12 2C12.5523 2 13 2.44772 13 3V4.07605C16.1336 4.55736 18.5333 7.2651 18.5333 10.5333V14.4209C19.4116 14.9442 20 15.9034 20 17C20 18.6569 18.6569 20 17 20H13.4142L13.7071 20.2929C14.0976 20.6834 14.0976 21.3166 13.7071 21.7071C13.3166 22.0976 12.6834 22.0976 12.2929 21.7071L10.5858 20Z" fill="#272727"/>
</svg>
