<svg width="current" height="current" viewBox="0 0 24 24" fill="none" xmlns="http://www.w3.org/2000/svg">
<path fill-rule="evenodd" clip-rule="evenodd" d="M4.00011 6H20.0001V6.46482L12.0001 11.7981L4.00011 6.46482V6ZM2.00011 6.98449C1.99996 6.99422 1.99996 7.00395 2.00011 7.01367V18C2.00011 19.1046 2.89554 20 4.00011 20H20.0001C21.1047 20 22.0001 19.1046 22.0001 18V7.01368C22.0002 7.00395 22.0002 6.99422 22.0001 6.98448V6C22.0001 4.89543 21.1047 4 20.0001 4H4.00011C2.89554 4 2.00011 4.89543 2.00011 6V6.98449ZM20.0001 8.86852V18H4.00011V8.86852L10.8907 13.4622C11.5625 13.9101 12.4377 13.9101 13.1095 13.4622L20.0001 8.86852Z" fill="#272727"/>
</svg>
