<svg width="current" height="current" viewBox="0 0 24 24" fill="none" xmlns="http://www.w3.org/2000/svg">
<path fill-rule="evenodd" clip-rule="evenodd" d="M12 8.81056L10.3648 6.48845C9.72794 5.58412 8.68209 5 7.5 5C5.567 5 4 6.567 4 8.5C4 9.42108 4.34306 10.5544 5.03661 11.8246C5.71993 13.076 6.67449 14.3336 7.71881 15.4636C8.76217 16.5926 9.8497 17.5452 10.7602 18.1989C11.2173 18.5271 11.5969 18.7562 11.8782 18.8945C11.925 18.9175 11.9655 18.9362 12 18.9513C12.0345 18.9362 12.075 18.9175 12.1218 18.8945C12.4031 18.7562 12.7827 18.5271 13.2398 18.1989C14.1503 17.5452 15.2378 16.5926 16.2812 15.4636C17.3255 14.3336 18.2801 13.076 18.9634 11.8246C19.6569 10.5544 20 9.42108 20 8.5C20 6.567 18.433 5 16.5 5C15.3179 5 14.2721 5.58412 13.6352 6.48845L12 8.81056ZM10.5557 3.92626C9.68172 3.3412 8.63071 3 7.5 3C4.46243 3 2 5.46243 2 8.5C2 14.0228 10 21 12 21C14 21 22 14.0228 22 8.5C22 5.46243 19.5376 3 16.5 3C15.3693 3 14.3183 3.3412 13.4443 3.92626C12.8805 4.3037 12.3903 4.78264 12 5.33692C11.6097 4.78264 11.1195 4.3037 10.5557 3.92626Z" fill="#272727"/>
</svg>
